<svg xmlns="http://www.w3.org/2000/svg" viewBox="0 0 512 512" style="enable-background:new 0 0 512 512" xml:space="preserve"><path style="fill:#00c3ff" d="M466.756 42.556H45.244c-20.243 0-36.653 16.41-36.653 36.653v256.573c0 20.243 16.41 36.653 36.653 36.653h256.573v87.837c0 8.163 9.87 12.253 15.643 6.48l94.317-94.317h54.98c20.243 0 36.653-16.41 36.653-36.653V79.209c-.001-20.243-16.411-36.653-36.654-36.653z"/><circle style="fill:#fff" cx="127.714" cy="207.492" r="36.653"/><circle style="fill:#fff" cx="256" cy="207.492" r="36.653"/><circle style="fill:#fff" cx="384.286" cy="207.492" r="36.653"/><path style="fill:#00aaf0" d="M45.244 335.782V79.209c0-20.243 16.41-36.653 36.653-36.653H45.244c-20.243 0-36.653 16.41-36.653 36.653v256.573c0 20.243 16.41 36.653 36.653 36.653h36.653c-20.243 0-36.653-16.411-36.653-36.653zM320.143 372.435h-18.327v87.837c0 8.163 9.87 12.253 15.643 6.48l21.01-21.01v-54.98c.001-10.123-8.204-18.327-18.326-18.327z"/><path d="M289.356 190.009a8.59 8.59 0 0 0-6.177 10.461c.586 2.278.884 4.641.884 7.025 0 15.473-12.589 28.063-28.063 28.063s-28.063-12.589-28.063-28.063 12.589-28.063 28.063-28.063c2.396 0 4.772.3 7.061.893 4.593 1.19 9.28-1.569 10.47-6.162s-1.569-9.28-6.162-10.47A45.336 45.336 0 0 0 256 162.251c-24.947 0-45.244 20.297-45.244 45.244s20.297 45.244 45.244 45.244 45.244-20.297 45.244-45.244c0-3.828-.48-7.633-1.427-11.31a8.591 8.591 0 0 0-10.461-6.176zM417.642 190.009a8.59 8.59 0 0 0-6.177 10.461c.586 2.278.884 4.641.884 7.025 0 15.473-12.589 28.063-28.063 28.063-15.473 0-28.063-12.589-28.063-28.063s12.589-28.063 28.063-28.063c2.396 0 4.772.3 7.061.893 4.594 1.19 9.28-1.569 10.47-6.162s-1.569-9.28-6.162-10.47a45.336 45.336 0 0 0-11.369-1.442c-24.947 0-45.244 20.297-45.244 45.244s20.297 45.244 45.244 45.244 45.244-20.297 45.244-45.244c0-3.828-.48-7.633-1.427-11.31a8.59 8.59 0 0 0-10.461-6.176zM161.069 190.009a8.59 8.59 0 0 0-6.177 10.461c.586 2.278.884 4.641.884 7.025 0 15.473-12.589 28.063-28.063 28.063S99.65 222.969 99.65 207.495s12.589-28.063 28.063-28.063c2.396 0 4.772.3 7.061.893a8.59 8.59 0 0 0 4.308-16.632 45.336 45.336 0 0 0-11.369-1.442c-24.947 0-45.244 20.297-45.244 45.244s20.297 45.244 45.244 45.244 45.244-20.297 45.244-45.244c0-3.828-.48-7.633-1.427-11.31a8.591 8.591 0 0 0-10.461-6.176z"/><path d="M466.756 33.965H45.244C20.297 33.965 0 54.262 0 79.209v256.573c0 24.948 20.297 45.244 45.244 45.244h247.982v79.247a17.7 17.7 0 0 0 10.959 16.402 17.705 17.705 0 0 0 19.348-3.847l91.8-91.8h51.422c24.947 0 45.244-20.296 45.244-45.244V79.21c.001-24.948-20.296-45.245-45.243-45.245zm28.063 301.817c0 15.473-12.589 28.063-28.063 28.063h-54.98a8.588 8.588 0 0 0-6.074 2.516l-94.317 94.317c-.144.144-.27.27-.624.124-.354-.145-.354-.324-.354-.529v-87.837a8.591 8.591 0 0 0-8.591-8.591H45.244c-15.473 0-28.063-12.589-28.063-28.063V79.209c0-15.473 12.589-28.063 28.063-28.063h421.512c15.473 0 28.063 12.589 28.063 28.063v256.573z"/></svg>